<?xml version="1.0" encoding="UTF-8"?>
<svg id="Layer_1" data-name="Layer 1" xmlns="http://www.w3.org/2000/svg" viewBox="0 0 11.36 16.47">
  <defs>
    <style>
      .cls-1 {
        fill: #231f20;
        stroke-width: 0px;
      }
    </style>
  </defs>
  <path class="cls-1" d="M0,6.73c0-1.61.59-3.01,1.78-4.21S4.34.71,5.91.71s2.82.56,3.87,1.69,1.58,2.55,1.58,4.27-.56,3.14-1.67,4.31-2.45,1.75-4.02,1.75-2.86-.59-3.98-1.78-1.69-2.59-1.69-4.23ZM2.31,10.38c.97,1.02,2.12,1.54,3.44,1.54s2.51-.5,3.46-1.51,1.44-2.25,1.44-3.72-.46-2.71-1.37-3.68-2.02-1.46-3.34-1.46-2.54.52-3.56,1.55-1.53,2.25-1.53,3.63.49,2.63,1.46,3.65Z"/>
  <path class="cls-1" d="M5.8,8.54c-.04.56-.2,1.17-.5,1.83l-.29-.02c.04-1,0-2.02-.1-3.04-.07-.61-.14-1.21-.21-1.81-.06-.54-.08-.94-.06-1.2.02-.29.13-.56.34-.82.09-.11.31-.33.64-.66,1.75.66,2.1,1.79,1.04,3.39l-.9.17c.05.89.07,1.61.04,2.16ZM5.54,5.05c.05.16.18.26.4.31.22,0,.36-.19.4-.56.05-.21.04-.4,0-.55s-.17-.27-.36-.34c-.09-.03-.17-.02-.23.01s-.12.18-.18.42c-.06.31-.07.55-.02.71Z"/>
</svg>