<?xml version="1.0" encoding="UTF-8"?>
<svg id="Layer_1" data-name="Layer 1" xmlns="http://www.w3.org/2000/svg" viewBox="0 0 11.36 16.47">
  <defs>
    <style>
      .cls-1 {
        fill: #231f20;
        stroke-width: 0px;
      }
    </style>
  </defs>
  <path class="cls-1" d="M0,6.73c0-1.61.59-3.01,1.78-4.21S4.34.71,5.91.71s2.82.56,3.87,1.69,1.58,2.55,1.58,4.27-.56,3.14-1.67,4.31-2.45,1.75-4.02,1.75-2.86-.59-3.98-1.78-1.69-2.59-1.69-4.23ZM2.31,10.38c.97,1.02,2.12,1.54,3.44,1.54s2.51-.5,3.46-1.51,1.44-2.25,1.44-3.72-.46-2.71-1.37-3.68-2.02-1.46-3.34-1.46-2.54.52-3.56,1.55-1.53,2.25-1.53,3.63.49,2.63,1.46,3.65Z"/>
  <path class="cls-1" d="M8.6,5.79c0,.26-.06.59-.17,1-.1.36-.19.6-.28.72-.23.33-.81.62-1.75.87-.2.07-.73.11-1.59.11s-1.57-.16-2.07-.47-.75-.76-.75-1.32c0-.29.05-.55.16-.77s.3-.52.6-.88l.12.09c-.2.34-.29.6-.29.77,0,.38.2.67.59.88s.94.31,1.65.31c.96,0,1.57-.03,1.82-.08.98-.23,1.48-.48,1.48-.76,0-.07-.08-.18-.25-.32s-.25-.26-.25-.37c0-.09.15-.53.45-1.31.35.48.52.99.52,1.52ZM5.96,9.19l-.46.77-.76-.57.47-.78.74.59Z"/>
</svg>