<?xml version="1.0" encoding="UTF-8"?>
<svg id="Layer_1" data-name="Layer 1" xmlns="http://www.w3.org/2000/svg" viewBox="0 0 11.6 16.47">
  <defs>
    <style>
      .cls-1 {
        fill: #231f20;
        stroke-width: 0px;
      }
    </style>
  </defs>
  <path class="cls-1" d="M0,6.73c0-1.61.59-3.01,1.78-4.21S4.34.71,5.91.71s2.82.56,3.87,1.69,1.58,2.55,1.58,4.27-.56,3.14-1.67,4.31-2.45,1.75-4.02,1.75-2.86-.59-3.98-1.78-1.69-2.59-1.69-4.23ZM2.31,10.38c.97,1.02,2.12,1.54,3.44,1.54s2.51-.5,3.46-1.51,1.44-2.25,1.44-3.72-.46-2.71-1.37-3.68-2.02-1.46-3.34-1.46-2.54.52-3.56,1.55-1.53,2.25-1.53,3.63.49,2.63,1.46,3.65Z"/>
  <path class="cls-1" d="M8.28,5.6l-.14,1.01c-.07,0-.2.02-.36.04-.14,0-.38.01-.72.04-.49.07-.9.18-1.22.35-.25.13-.65.4-1.2.83-.34.26-.54.41-.6.45-.25.16-.49.23-.7.23h-.41v-1.3h.41c.56,0,1.28-.22,2.15-.67-.46-.24-.88-.36-1.27-.36-.28,0-.62.07-1.01.22.14-.57.3-.96.49-1.19.19-.22.46-.33.8-.33.25,0,.61.09,1.09.28.77.3,1.46.45,2.06.45.1,0,.31-.01.64-.04ZM6.52,9.05l-.45.78-.76-.59.47-.77.73.57Z"/>
</svg>