<?xml version="1.0" encoding="UTF-8"?>
<svg id="Layer_1" data-name="Layer 1" xmlns="http://www.w3.org/2000/svg" viewBox="0 0 11.36 16.47">
  <defs>
    <style>
      .cls-1 {
        fill: #231f20;
        stroke-width: 0px;
      }
    </style>
  </defs>
  <path class="cls-1" d="M0,6.73c0-1.61.59-3.01,1.78-4.21S4.34.71,5.91.71s2.82.56,3.87,1.69,1.58,2.55,1.58,4.27-.56,3.14-1.67,4.31-2.45,1.75-4.02,1.75-2.86-.59-3.98-1.78-1.69-2.59-1.69-4.23ZM2.31,10.38c.97,1.02,2.12,1.54,3.44,1.54s2.51-.5,3.46-1.51,1.44-2.25,1.44-3.72-.46-2.71-1.37-3.68-2.02-1.46-3.34-1.46-2.54.52-3.56,1.55-1.53,2.25-1.53,3.63.49,2.63,1.46,3.65Z"/>
  <path class="cls-1" d="M6.73,7.85c0,.64-.18,1.09-.53,1.33-.44.3-1.1.46-1.96.46-.29,0-.57-.02-.85-.06l.25-1.48c.19.02.38.02.56.02,1.4,0,2.1-.16,2.1-.47,0-.23-.27-.51-.8-.83-.25-.15-.66-.37-1.22-.64l.57-1.39c.48.33.84.62,1.05.87.55.62.82,1.35.82,2.2Z"/>
</svg>